# xmcd
#
# Track frame offsets: 
#        150
#        21532
#        39689
#        58177
#        79188
#        101017
#        121958
#        146851
#        168036
#        196632
#        218261
#
# Disc length: 3063 seconds
#
# Revision: 12
# Processed by: cddbd v1.5.2PL0 Copyright (c) Steve Scherf et al.
# Submitted via: ExactAudioCopy v0.99pb4
#
DISCID=940bf50b
DTITLE=Al Jarreau - All I Got
DYEAR=2002
DGENRE=Jazz
TTITLE0=Random Act Of Love
TTITLE1=Life Is
TTITLE2=Never Too Late
TTITLE3=Feels Like Heaven
TTITLE4=Lost And Found (duet with Joe Cocker)
TTITLE5=Secrets Of Love
TTITLE6=All I Got
TTITLE7=Until You Love Me
TTITLE8=Oasis
TTITLE9=Jacaranda Bougainvillea
TTITLE10=Route 66
EXTD=GRP - Universal\nYear: 2002\nProduced by: Paul Brown - Steven Dubi
EXTD=n\n\n\n1. \n      Random Act Of Love \n    2. \n      Life Is \n 
EXTD=3. \nNever Too Late \n    4. \n      Feels Like Heaven To Me \n
EXTD=5. \nLost And Found - (with Joe Cocker) \n    6. \n      Secr
EXTD=ets Of Love \n7. \n      All I Got \n    8. \n      Until You Lov
EXTD=e Me \n    9. \nOasis \n   10. \n      Jacaranda Bougainvillea \n
EXTD=11. \n      Route 66 YEAR: 2002
EXTT0=
EXTT1=
EXTT2=
EXTT3=
EXTT4=(duet with Joe Cocker)
EXTT5=
EXTT6=
EXTT7=
EXTT8=
EXTT9=
EXTT10=
PLAYORDER=
